<svg width="200" height="199" viewBox="0 0 200 199" fill="none" xmlns="http://www.w3.org/2000/svg">
<path d="M194.302 94.0701C193.469 94.0773 192.648 94.2829 191.91 94.6701L184.597 87.3501C182.649 73.6152 177.36 60.5684 169.192 49.3551L171.915 44.1051C172.938 44.1778 173.96 43.9492 174.855 43.4473C175.75 42.9455 176.478 42.1924 176.95 41.2813C177.421 40.3701 177.616 39.3408 177.509 38.3205C177.401 37.3001 176.998 36.3335 176.347 35.5401C176.141 35.2852 175.913 35.0492 175.665 34.8351C175.136 34.3874 174.524 34.0488 173.864 33.8388C173.204 33.6288 172.508 33.5515 171.818 33.6115C171.128 33.6715 170.456 33.8674 169.842 34.1881C169.228 34.5088 168.684 34.9479 168.24 35.4801L168.202 35.5401H156.6C144.14 24.5005 128.711 17.365 112.23 15.0201L104.91 7.70758C105.301 6.97064 105.507 6.14947 105.51 5.31508C105.503 4.52489 105.319 3.74637 104.969 3.03757C104.62 2.32877 104.115 1.70798 103.492 1.22148C102.87 0.734983 102.145 0.395331 101.373 0.22785C100.601 0.0603695 99.8004 0.0693814 99.0321 0.254213C98.2638 0.439045 97.5472 0.794929 96.9356 1.29533C96.324 1.79573 95.8332 2.42773 95.4999 3.14422C95.1666 3.86071 94.9994 4.64319 95.0106 5.43333C95.0219 6.22347 95.2114 7.00087 95.5649 7.70758L88.2449 15.0201C71.7698 17.3528 56.3432 24.4753 43.8824 35.5026H32.2874C32.0841 35.2478 31.8582 35.0118 31.6124 34.7976C31.0835 34.3487 30.4708 34.0092 29.8099 33.7985C29.1489 33.5878 28.4528 33.5103 27.7617 33.5702C27.0706 33.6302 26.3982 33.8266 25.7834 34.1479C25.1686 34.4693 24.6236 34.9093 24.1799 35.4426C24.1691 35.4636 24.1566 35.4837 24.1424 35.5026C23.4902 36.2954 23.0846 37.262 22.976 38.2829C22.8674 39.3037 23.0605 40.334 23.5314 41.2463C24.0023 42.1585 24.7304 42.9127 25.6254 43.4155C26.5205 43.9183 27.5434 44.1476 28.5674 44.0751L31.2899 49.3251C23.1155 60.5464 17.8229 73.604 15.8774 87.3501L8.56494 94.6701C7.85823 94.3165 7.08083 94.1271 6.29069 94.1158C5.50055 94.1046 4.71807 94.2718 4.00158 94.6051C3.28509 94.9384 2.65309 95.4292 2.15269 96.0408C1.65229 96.6524 1.2964 97.369 1.11157 98.1373C0.926742 98.9056 0.917731 99.7057 1.08521 100.478C1.25269 101.25 1.59234 101.975 2.07884 102.597C2.56534 103.22 3.18613 103.725 3.89493 104.074C4.60373 104.424 5.38225 104.609 6.17244 104.615C7.00683 104.612 7.82799 104.406 8.56494 104.015L15.8774 111.335C17.8254 125.07 23.1152 138.117 31.2824 149.33L27.5324 156.53C26.6897 156.647 25.8879 156.966 25.1961 157.461C24.5042 157.956 23.9431 158.612 23.5609 159.372C23.1787 160.132 22.9869 160.974 23.0021 161.824C23.0173 162.675 23.239 163.509 23.648 164.255C24.0571 165.001 24.6413 165.636 25.3503 166.106C26.0594 166.576 26.8721 166.867 27.7184 166.954C28.5648 167.04 29.4194 166.919 30.2088 166.602C30.9982 166.285 31.6987 165.781 32.2499 165.133C32.7268 164.564 33.0748 163.899 33.2699 163.183H43.8749C56.333 174.225 71.7629 181.361 88.2449 183.703L95.5649 191.015C95.2114 191.722 95.0219 192.499 95.0106 193.289C94.9994 194.08 95.1666 194.862 95.4999 195.579C95.8332 196.295 96.324 196.927 96.9356 197.427C97.5472 197.928 98.2638 198.284 99.0321 198.469C99.8004 198.653 100.601 198.662 101.373 198.495C102.145 198.327 102.87 197.988 103.492 197.501C104.115 197.015 104.62 196.394 104.969 195.685C105.319 194.976 105.503 194.198 105.51 193.408C105.506 192.573 105.3 191.752 104.91 191.015L112.23 183.703C128.712 181.361 144.142 174.225 156.6 163.183H168.187C168.391 163.439 168.62 163.675 168.87 163.888C169.399 164.335 170.011 164.674 170.671 164.884C171.331 165.094 172.026 165.171 172.717 165.111C173.407 165.051 174.078 164.855 174.693 164.535C175.307 164.214 175.851 163.775 176.295 163.243L176.332 163.183C176.983 162.389 177.386 161.423 177.494 160.402C177.601 159.382 177.406 158.353 176.935 157.441C176.463 156.53 175.735 155.777 174.84 155.275C173.945 154.774 172.923 154.545 171.9 154.618L169.177 149.368C177.345 138.154 182.634 125.108 184.582 111.373L191.895 104.053C192.632 104.443 193.453 104.649 194.287 104.653C195.686 104.653 197.027 104.097 198.016 103.108C199.004 102.12 199.56 100.778 199.56 99.3801C199.56 97.9817 199.004 96.6407 198.016 95.6519C197.027 94.6631 195.686 94.1076 194.287 94.1076L194.302 94.0701ZM15.3599 106.738L10.6724 102.058C11.1773 101.243 11.4448 100.304 11.4448 99.3463C11.4448 98.3883 11.1773 97.4493 10.6724 96.6351L15.3599 91.9476C15.1499 94.3851 15.0224 96.8526 15.0224 99.3426C15.0224 101.833 15.1499 104.3 15.3599 106.738ZM167.017 38.3826C166.94 39.2265 167.068 40.0766 167.391 40.8602C167.713 41.6438 168.221 42.3377 168.87 42.8826C168.967 42.9651 169.08 43.0251 169.185 43.1001L167.265 46.8501C164.931 43.8784 162.406 41.0624 159.705 38.4201L167.017 38.3826ZM97.4999 9.77758C98.3141 10.2824 99.2531 10.5499 100.211 10.5499C101.169 10.5499 102.108 10.2824 102.922 9.77758L107.602 14.4651C105.165 14.2551 102.705 14.1276 100.207 14.1276C97.7099 14.1276 95.2499 14.2551 92.8124 14.4651L97.4999 9.77758ZM32.2499 42.2301C33.1454 41.1574 33.5819 39.775 33.4649 38.3826H40.7624C38.0645 41.0233 35.544 43.8394 33.2174 46.8126L31.2974 43.0626C31.6442 42.8205 31.9636 42.5414 32.2499 42.2301ZM33.2849 160.303C32.9981 159.289 32.4127 158.384 31.6049 157.708C31.2799 157.439 30.922 157.212 30.5399 157.033L33.2099 151.88C35.539 154.851 38.062 157.665 40.7624 160.303H33.2849ZM102.945 188.908C102.131 188.403 101.192 188.135 100.234 188.135C99.2756 188.135 98.3366 188.403 97.5224 188.908L92.8424 184.25C95.2799 184.46 97.7474 184.595 100.237 184.595C102.727 184.595 105.195 184.46 107.632 184.25L102.945 188.908ZM159.345 62.1051L135.63 38.3826H144.075C151.079 43.4446 157.167 49.6667 162.075 56.7801L159.345 62.1051ZM163.912 59.5476C166.691 63.9677 169.001 68.6656 170.805 73.5651L161.49 64.2501L163.912 59.5476ZM163.792 101.135C159.02 105.05 153.829 108.423 148.312 111.193L148.935 110.705C150.572 109.407 152.13 108.012 153.6 106.528C154.549 105.575 155.448 104.574 156.292 103.528C156.87 102.778 157.155 102.41 157.155 102.41C157.155 102.41 156.802 102.755 156.12 103.37C155.437 103.985 154.387 104.825 153.037 105.868C151.687 106.91 149.985 108.08 147.982 109.34C146.977 109.963 145.92 110.638 144.742 111.245C143.565 111.853 142.387 112.58 141.067 113.188L139.087 114.155C138.397 114.47 137.685 114.748 136.972 115.055L134.797 116L132.502 116.833L130.147 117.68L127.68 118.43L125.16 119.18L122.565 119.788L119.917 120.395C119.025 120.598 118.11 120.695 117.202 120.853L115.702 121.093C114.532 121.243 113.34 121.378 112.132 121.498C116.125 119.351 119.462 116.164 121.79 112.273C124.117 108.383 125.348 103.936 125.352 99.4025C125.356 94.8693 124.133 90.4196 121.812 86.5256C119.491 82.6316 116.159 79.4385 112.17 77.2851C115.867 77.6526 119.362 78.1851 122.67 78.8376L125.167 79.4151L127.687 80.1651L130.155 80.9151L132.51 81.7701L134.805 82.6026L136.987 83.5326C137.737 83.8401 138.412 84.1176 139.102 84.4251L141.082 85.4001C142.402 86.0076 143.602 86.6976 144.757 87.3426C145.912 87.9876 147.007 88.6251 147.997 89.2476C150 90.5001 151.687 91.6926 153.052 92.7201C154.417 93.7476 155.445 94.6101 156.135 95.2176C156.825 95.8251 157.17 96.1776 157.17 96.1776C157.17 96.1776 156.885 95.7801 156.307 95.0601C155.461 94.0155 154.562 93.0142 153.615 92.0601C152.145 90.5783 150.587 89.1858 148.95 87.8901C150.247 88.5651 151.485 89.2326 152.617 89.8851C156.557 92.151 160.3 94.7425 163.807 97.6326L129.622 99.4251L163.792 101.135ZM36.5924 97.6176C41.2098 93.8188 46.2239 90.5298 51.5474 87.8076C49.903 89.1079 48.3401 90.508 46.8674 92.0001C45.92 92.9519 45.0237 93.9533 44.1824 95.0001C43.5974 95.7501 43.3199 96.1176 43.3199 96.1176C43.3199 96.1176 43.6649 95.7726 44.3474 95.1576C45.0299 94.5426 46.0799 93.7026 47.4374 92.6601C48.7949 91.6176 50.4899 90.4476 52.4924 89.1876C53.4974 88.5726 54.5474 87.8976 55.7249 87.2826C56.9024 86.6676 58.0874 85.9551 59.3999 85.3476L61.3874 84.3726C62.0699 84.0651 62.7899 83.7801 63.5024 83.4801L65.6774 82.5426L67.9799 81.7101L70.3349 80.8626L72.8024 80.1126L75.3149 79.3626L77.9174 78.7551L78.7724 78.5601C81.8074 77.9901 84.9999 77.5376 88.3499 77.2026C84.35 79.3478 81.006 82.5368 78.6736 86.4306C76.3413 90.3244 75.1076 94.7775 75.1037 99.3164C75.0999 103.855 76.326 108.31 78.6518 112.208C80.9776 116.106 84.3161 119.301 88.3124 121.453C86.9174 121.31 85.5524 121.153 84.2099 120.965L83.2799 120.823C82.3649 120.665 81.4499 120.56 80.5649 120.365L77.9174 119.758L75.3149 119.15L72.8024 118.4L70.3349 117.688L67.9799 116.833L65.6774 116L63.5024 115.07C62.7524 114.763 62.0699 114.485 61.3874 114.178L59.3999 113.203C58.0874 112.595 56.8874 111.905 55.7249 111.268C54.5624 110.63 53.4749 109.978 52.4924 109.355C50.4899 108.103 48.7949 106.91 47.4374 105.883C46.0799 104.855 45.0374 104 44.3474 103.393C43.6574 102.785 43.3199 102.433 43.3199 102.433C43.3199 102.433 43.5974 102.83 44.1824 103.55C45.0237 104.597 45.92 105.598 46.8674 106.55C48.3378 108.032 49.8956 109.424 51.5324 110.72L52.1399 111.2C50.6399 110.45 49.1924 109.655 47.8799 108.898C43.9149 106.617 40.1513 104.002 36.6299 101.083L69.4874 99.3576L36.5924 97.6176ZM82.9724 87.1626C82.972 86.238 83.2342 85.3322 83.7284 84.5507C84.2226 83.7692 84.9286 83.1441 85.7642 82.7482C86.5998 82.3522 87.5306 82.2017 88.4484 82.3141C89.3662 82.4265 90.2332 82.7972 90.9486 83.3831C91.6639 83.9689 92.1982 84.7459 92.4892 85.6236C92.7803 86.5012 92.8161 87.4435 92.5926 88.3407C92.3691 89.2379 91.8954 90.0532 91.2266 90.6918C90.5579 91.3303 89.7215 91.7658 88.8149 91.9476C88.8987 92.2225 88.9441 92.5077 88.9499 92.7951C88.952 93.3263 88.8167 93.8491 88.5571 94.3127C88.2976 94.7762 87.9227 95.1648 87.4688 95.4408C87.0148 95.7168 86.4973 95.8708 85.9663 95.8878C85.4353 95.9048 84.909 95.7844 84.4383 95.538C83.9676 95.2917 83.5685 94.9279 83.2798 94.482C82.9911 94.036 82.8226 93.523 82.7906 92.9927C82.7585 92.4624 82.8641 91.9329 83.097 91.4554C83.3299 90.9779 83.6823 90.5688 84.1199 90.2676C83.3842 89.3997 82.9779 88.3003 82.9724 87.1626ZM101.722 113.563C105.274 111.616 108.099 108.572 109.776 104.886C111.453 101.2 111.892 97.0702 111.027 93.1141C110.161 89.1581 108.039 85.5884 104.976 82.9393C101.913 80.2901 98.0744 78.7038 94.0349 78.4176C97.8074 77.2782 101.818 77.1796 105.642 78.1323C109.466 79.0851 112.961 81.0537 115.758 83.8299C118.555 86.6061 120.549 90.0867 121.53 93.9035C122.511 97.7202 122.443 101.731 121.331 105.512C120.22 109.293 118.107 112.703 115.217 115.382C112.326 118.06 108.765 119.908 104.911 120.729C101.057 121.55 97.0522 121.314 93.321 120.046C89.5898 118.778 86.2707 116.525 83.7149 113.525C86.4676 115.035 89.5554 115.83 92.6951 115.837C95.8349 115.843 98.926 115.061 101.685 113.563H101.722ZM100.275 70.8801C91.3178 70.8513 82.3853 71.8197 73.6424 73.7676L91.9424 38.3826H108.615L126.907 73.7676C118.152 71.817 109.207 70.8485 100.237 70.8801H100.275ZM69.9299 74.6751C63.4719 76.3549 57.1924 78.6582 51.1799 81.5526L42.5174 64.7976L68.9249 38.3826H88.6574L69.9299 74.6751ZM69.9299 124.01L88.6799 160.303H68.9249L42.5174 133.895L51.1799 117.14C57.1807 120.03 63.4475 122.33 69.8924 124.01H69.9299ZM73.6799 124.918C91.2214 128.765 109.388 128.765 126.93 124.918L108.637 160.303H91.8974L73.6799 124.918ZM130.68 124.01C137.122 122.33 143.387 120.03 149.385 117.14L158.055 133.895L131.55 160.303H111.817L130.68 124.01ZM130.68 74.6751L111.93 38.3826H131.55L157.965 64.7976L149.295 81.5526C143.297 78.6605 137.033 76.3572 130.59 74.6751H130.68ZM132.75 35.5026L126 28.7526C130.808 30.5267 135.422 32.7885 139.77 35.5026H132.75ZM128.677 35.5026H110.332L104.565 24.3501C109.802 24.6466 114.994 25.4963 120.052 26.8851L128.677 35.5026ZM107.092 35.5026H93.3899L99.2174 24.2526C99.5549 24.2526 99.8924 24.2526 100.237 24.2526C100.582 24.2526 100.92 24.2526 101.265 24.2526L107.092 35.5026ZM90.1574 35.5026H71.8049L80.4224 26.8851C85.4835 25.4957 90.6774 24.646 95.9174 24.3501L90.1574 35.5026ZM67.7399 35.5026H60.6974C65.0424 32.7885 69.6539 30.5266 74.4599 28.7526L67.7399 35.5026ZM64.8599 38.3826L41.1224 62.1051L38.3699 56.7501C43.2765 49.6357 49.3644 43.4134 56.3699 38.3526L64.8599 38.3826ZM38.9999 64.2501L29.6624 73.5651C31.4694 68.667 33.7792 63.9694 36.5549 59.5476L38.9999 64.2501ZM40.3874 66.9426L48.6374 82.8501C41.245 86.5983 34.4569 91.4347 28.4999 97.1976L28.2224 97.4751C27.0599 98.6451 26.4899 99.3426 26.4899 99.3426C26.4899 99.3426 27.0599 100.04 28.2224 101.21L28.4999 101.488C34.445 107.25 41.2203 112.089 48.5999 115.843L40.3724 131.75L27.7499 119.158C24.1901 106.187 24.1901 92.4978 27.7499 79.5276L40.3874 66.9426ZM38.9999 134.443L36.5699 139.138C33.7913 134.717 31.4813 130.02 29.6774 125.12L38.9999 134.443ZM41.1374 136.58L64.8599 160.303H56.3999C49.3954 155.241 43.3078 149.018 38.3999 141.905L41.1374 136.58ZM67.7474 163.183L74.4974 169.933C69.6877 168.162 65.0734 165.9 60.7274 163.183H67.7474ZM71.8199 163.183H90.1499L95.9174 174.343C90.6776 174.041 85.484 173.188 80.4224 171.8L71.8199 163.183ZM93.4049 163.183H107.1L101.28 174.433C100.935 174.433 100.597 174.433 100.252 174.433C99.9074 174.433 99.5699 174.433 99.2324 174.433L93.4049 163.183ZM104.572 174.343L110.347 163.183H128.685L120.052 171.8C114.991 173.188 109.797 174.041 104.557 174.343H104.572ZM126.03 169.918L132.78 163.168H139.815C135.455 165.887 130.825 168.149 126 169.918H126.03ZM144.09 160.303H135.63L159.352 136.58L162.105 141.905C157.19 149.023 151.092 155.245 144.075 160.303H144.09ZM168.225 156.5C167.778 157.028 167.44 157.639 167.231 158.298C167.021 158.957 166.943 159.651 167.002 160.34H159.705C162.402 157.688 164.922 154.862 167.25 151.88L169.17 155.593C168.816 155.852 168.499 156.157 168.225 156.5ZM163.92 139.175L161.49 134.48L170.812 125.158C169.006 130.044 166.696 134.729 163.92 139.138V139.175ZM172.695 119.195L160.102 131.75L151.852 115.835C166.785 108.05 173.962 99.3351 173.962 99.3351C173.962 99.3351 166.785 90.6201 151.852 82.8351L160.102 66.9276L172.695 79.5201C176.265 92.4889 176.265 106.181 172.695 119.15V119.195ZM180.075 95.1501C180.022 94.4601 179.962 93.6951 179.895 92.8476C179.851 91.9234 179.741 91.0035 179.565 90.0951C179.212 88.1301 178.815 85.8726 178.365 83.3451C177.66 80.8776 176.97 78.0951 176.032 75.1776L174.277 70.6776C173.97 69.9276 173.685 69.1026 173.34 68.3151C172.995 67.5276 172.552 66.7626 172.155 65.9676C165.477 51.9293 154.799 40.1782 141.462 32.1914C128.125 24.2046 112.724 20.3385 97.1963 21.0791C81.6684 21.8197 66.7058 27.1339 54.1894 36.3537C41.673 45.5735 32.1613 58.2875 26.8499 72.8976C26.3999 74.2326 25.7999 75.5226 25.4624 76.8876C25.1249 78.2526 24.7124 79.6176 24.3974 80.9676C23.5499 83.6751 23.3024 86.4051 22.8224 89.1051L22.4999 91.1376C22.4399 91.8351 22.4174 92.5476 22.3724 93.2526C22.2899 94.6626 22.2074 96.0726 22.1324 97.4751L22.0724 98.5251V99.0501V99.3126C22.0711 99.3351 22.0711 99.3576 22.0724 99.3801V99.5001L22.1624 101.548C22.2224 102.905 22.2824 104.263 22.3424 105.605C23.3904 119.488 28.0531 132.856 35.8672 144.379C43.6813 155.902 54.3747 165.18 66.8849 171.29L69.2324 172.483C70.0199 172.82 70.8149 173.113 71.5874 173.42L76.0874 175.168C79.0274 176.105 81.7874 176.795 84.2549 177.508L91.0049 178.7C91.9132 178.876 92.8332 178.987 93.7574 179.03L96.0674 179.21L100.297 179.54L96.0599 179.443L93.7424 179.39C92.8142 179.4 91.8866 179.34 90.9674 179.21L83.9999 178.295C81.4799 177.68 78.6599 177.103 75.6374 176.27L71.0099 174.68C70.2074 174.395 69.3824 174.14 68.5649 173.825L66.1274 172.715C58.6318 169.48 51.7156 165.042 45.6524 159.575C38.3667 153.148 32.2864 145.473 27.6974 136.91C22.5398 127.304 19.4101 116.741 18.5024 105.875C18.4199 104.465 18.3374 103.048 18.2624 101.623L18.1424 99.5001V98.8776V98.3526L18.2249 97.2501L18.4049 93.0276C18.4424 92.3226 18.4574 91.6176 18.5174 90.9051L18.8249 88.7151C19.2824 85.8051 19.5749 82.8051 20.3924 79.9776C20.7524 78.5526 21.1424 77.1126 21.4874 75.6801C21.8324 74.2476 22.4549 72.8676 22.9274 71.4576C26.9404 60.0412 33.4675 49.6725 42.0262 41.1176C50.585 32.5627 60.9567 26.0404 72.3749 22.0326C83.3721 18.1095 95.0845 16.5978 106.717 17.6001C117.603 18.5003 128.188 21.6302 137.812 26.7951C146.381 31.3861 154.063 37.466 160.5 44.7501C165.972 50.823 170.411 57.7525 173.64 65.2626C174.015 66.0876 174.39 66.8976 174.75 67.7001C175.11 68.5026 175.327 69.3426 175.612 70.1376C176.157 71.7426 176.685 73.2876 177.195 74.7726C178.027 77.7726 178.612 80.6151 179.22 83.1351C179.55 85.7076 179.85 88.0026 180.105 90.0051C180.235 90.9242 180.295 91.8519 180.285 92.7801C180.285 93.6351 180.322 94.4076 180.337 95.1051C180.397 97.8651 180.435 99.3426 180.435 99.3426C180.435 99.3426 180.292 97.8726 180.075 95.1126V95.1501ZM189.825 102.095L185.137 106.775C185.347 104.338 185.482 101.878 185.482 99.3801C185.482 96.8826 185.347 94.4226 185.137 91.9851L189.825 96.6726C189.32 97.4868 189.053 98.4258 189.053 99.3839C189.053 100.342 189.32 101.281 189.825 102.095Z" fill="#414141"/>
</svg>
